<svg width="28" height="31" viewBox="0 0 28 31" fill="none" xmlns="http://www.w3.org/2000/svg">
<path d="M27.5602 9.05661C27.56 8.53864 27.4486 8.08094 27.2234 7.68823C27.0021 7.30184 26.6707 6.97808 26.2262 6.7221C22.557 4.61816 18.8842 2.52066 15.2162 0.414578C14.2273 -0.15315 13.2685 -0.132345 12.2869 0.443532C10.8265 1.29995 3.51447 5.4659 1.33558 6.72092C0.438257 7.2376 0.00161758 8.02818 0.0014019 9.05564C0 13.2868 0.0014019 17.5179 0 21.7491C0 22.2557 0.106868 22.7046 0.322222 23.0914C0.543615 23.4894 0.879641 23.822 1.3344 24.0838C3.51339 25.3388 10.8264 29.5044 12.2865 30.3612C13.2685 30.9374 14.2273 30.958 15.2165 30.3901C18.8846 28.284 22.5576 26.1865 26.2274 24.0825C26.6821 23.8208 27.0181 23.488 27.2395 23.0903C27.4546 22.7034 27.5616 22.2546 27.5616 21.7479C27.5616 21.7479 27.5616 13.2879 27.5602 9.05661Z" fill="#A179DC"/>
<path d="M13.823 15.3611L0.322227 23.0914C0.54362 23.4894 0.879646 23.822 1.3344 24.0838C3.51339 25.3388 10.8264 29.5044 12.2865 30.3612C13.2685 30.9374 14.2273 30.958 15.2165 30.3901C18.8846 28.2839 22.5576 26.1864 26.2274 24.0825C26.6821 23.8208 27.0181 23.488 27.2395 23.0903L13.823 15.3611Z" fill="#280068"/>
<path d="M27.5603 9.05658C27.5601 8.53862 27.4487 8.08091 27.2234 7.6882L13.823 15.3612L27.2396 23.0903C27.4546 22.7034 27.5615 22.2546 27.5617 21.7479C27.5617 21.7479 27.5617 13.2878 27.5603 9.05658Z" fill="#390091"/>
<path d="M21.7718 12.4713V13.9163H23.2248V12.4713H23.9513V13.9163H25.4043V14.6387H23.9513V16.0836H25.4043V16.8061H23.9513V18.251H23.2248V16.8061H21.7718V18.251H21.0453V16.8061H19.5924V16.0836H21.0453V14.6387H19.5924V13.9163H21.0453V12.4713H21.7718ZM23.2248 14.6386H21.7718V16.0836H23.2248V14.6386Z" fill="white"/>
<path d="M13.8526 5.21463C17.6425 5.21463 20.9513 7.26141 22.7237 10.3038L22.7064 10.2745L18.2473 12.8277C17.3688 11.3485 15.7584 10.3502 13.9108 10.3296L13.8525 10.3293C11.0352 10.3293 8.75122 12.6007 8.75122 15.4023C8.75029 16.2854 8.98228 17.1532 9.42403 17.9192C10.3033 19.4458 11.9564 20.4754 13.8526 20.4754C15.7606 20.4754 17.4231 19.4327 18.2979 17.8898L18.2766 17.9268L22.729 20.4918C20.976 23.5085 17.7125 25.5489 13.9667 25.5896L13.8526 25.5902C10.0508 25.5902 6.73258 23.5308 4.96468 20.4723C4.10164 18.9792 3.60785 17.2482 3.60785 15.4023C3.60785 9.77586 8.19445 5.21452 13.8525 5.21452L13.8526 5.21463Z" fill="white"/>
</svg>
