<svg width="28" height="32" viewBox="0 0 28 32" fill="none" xmlns="http://www.w3.org/2000/svg">
<path d="M27.4322 0L24.9331 27.9967L13.6993 31.1111L2.4965 28.0011L0 0H27.4322Z" fill="#264DE4"/>
<path d="M22.7935 26.214L24.9292 2.28952H13.7161V28.7306L22.7935 26.214Z" fill="#2965F1"/>
<path d="M5.72314 12.6747L6.03094 16.1089H13.7161V12.6747H5.72314Z" fill="#EBEBEB"/>
<path d="M13.7161 5.72372H13.7042H5.10468L5.41686 9.15799H13.7161V5.72372Z" fill="#EBEBEB"/>
<path d="M13.7161 25.1667V21.5937L13.701 21.5977L9.87631 20.5649L9.63181 17.826H7.77329H6.18439L6.66552 23.2182L13.7003 25.1711L13.7161 25.1667Z" fill="#EBEBEB"/>
<path d="M17.9331 16.1089L17.5345 20.5628L13.7042 21.5966V25.1695L20.7446 23.2183L20.7962 22.6381L21.6032 13.5969L21.687 12.6747L22.307 5.72372H13.7042V9.15799H18.5434L18.2309 12.6747H13.7042V16.1089H17.9331Z" fill="white"/>
</svg>
