<svg width="512" height="512" viewBox="0 0 512 512" fill="none" xmlns="http://www.w3.org/2000/svg">
<g id="Type=Flat" clip-path="url(#clip0_339_1524)">
<g id="Union">
<path d="M451.386 154.595C413.312 81.272 338.368 35.7158 255.849 35.7158C228.405 35.7158 201.685 40.6901 176.388 50.4801L176.391 50.4899C92.1752 83.0809 35.612 165.668 35.612 256.014C35.612 275.831 38.2376 295.457 43.4071 314.37L43.3963 314.373C69.2996 408.76 156.99 476.259 255.678 476.311C258.659 476.311 261.613 476.229 264.539 476.119C268.971 475.927 272.91 473.105 274.632 468.939L326.579 342.686L256.805 171.453H297.504L347.258 296.91L396.682 171.453H435.138L307.592 482.507C300.617 499.529 284.287 511.013 266.016 511.781C262.625 511.918 259.233 512 255.815 512H255.295C197.064 511.89 140.144 491.689 94.9595 455.097C50.2942 418.914 18.7849 368.287 6.23047 312.507L6.25854 312.5C2.10705 294.045 0 275.086 0 256.014C0 153.107 63.1525 58.8399 157.797 19.4997L157.793 19.4887C188.892 6.57847 221.878 0 255.849 0C351.716 0 438.749 52.9022 482.977 138.094C500.983 173.171 512 214.37 512 256.542C512 354.941 456.658 440.375 375.494 483.228L357.958 452.132C428.34 415.428 476.412 341.616 476.412 256.542C476.412 219.624 467.385 185.159 451.386 154.595Z" fill="#09293F"/>
<path d="M225.57 233.509C216.928 214.24 200.106 203.194 179.455 203.194C165.069 203.194 152.897 208.238 143.296 218.214C133.45 228.74 128.636 241.13 128.636 256.096C128.636 270.953 133.56 283.588 143.296 293.648C152.925 303.571 165.069 308.614 179.455 308.614C200.571 308.614 217.803 297.294 225.543 278.353L226.2 276.79L260.936 288.633L260.197 290.414C246.767 323.197 215.833 343.59 179.455 343.59C153.882 343.59 133.094 335.367 115.917 318.482C98.8499 301.707 90.207 280.71 90.207 256.068C90.207 231.207 98.8499 210.101 115.917 193.326C133.094 176.442 153.882 168.218 179.455 168.218C215.833 168.218 246.767 188.611 260.197 221.422L260.936 223.203L226.254 235.018L225.57 233.509Z" fill="#09293F"/>
</g>
</g>
<defs>
<clipPath id="clip0_339_1524">
<rect width="512" height="512" fill="white"/>
</clipPath>
</defs>
</svg>
