<svg width="32" height="23" viewBox="0 0 32 23" fill="none" xmlns="http://www.w3.org/2000/svg">
<path d="M30.8043 8.42747C30.7199 8.36046 29.9322 7.7657 28.2711 7.7657C27.8325 7.76762 27.3948 7.80524 26.9622 7.87821C26.6407 5.67456 24.8188 4.60017 24.7372 4.55197L24.2911 4.29474L23.9977 4.71808C23.6303 5.28675 23.3621 5.91364 23.2047 6.5721C22.9073 7.83001 23.0881 9.01151 23.7271 10.0216C22.9555 10.4516 21.7177 10.5574 21.4672 10.5668H0.97386C0.438579 10.5675 0.00422411 11.0001 0.00130693 11.5354C-0.0225965 13.3307 0.281574 15.1153 0.89884 16.8013C1.6048 18.6527 2.65507 20.0164 4.02148 20.851C5.55266 21.7887 8.04031 22.3246 10.8602 22.3246C12.1341 22.3286 13.4056 22.2133 14.658 21.9803C16.399 21.6606 18.0743 21.0521 19.6145 20.1798C20.8837 19.4449 22.0259 18.5099 22.9971 17.4109C24.6207 15.5729 25.5879 13.526 26.3073 11.7068H26.5939C28.3716 11.7068 29.4647 10.9955 30.0675 10.3994C30.4682 10.0192 30.7809 9.55602 30.9838 9.04234L31.1111 8.66994L30.8043 8.42747Z" fill="#2496ED"/>
<path d="M2.87344 9.96667H5.61964C5.75209 9.96667 5.85941 9.8593 5.85941 9.7269V7.28074C5.86015 7.14829 5.75339 7.04035 5.62099 7.03961C5.62055 7.03961 5.62007 7.03961 5.61964 7.03961H2.87344C2.74099 7.03961 2.63367 7.14698 2.63367 7.27939V7.28074V9.72686C2.63367 9.85931 2.74099 9.96667 2.87344 9.96667Z" fill="#2496ED"/>
<path d="M6.65786 9.96667H9.40405C9.5365 9.96667 9.64383 9.8593 9.64383 9.7269V7.28074C9.64457 7.14829 9.53781 7.04035 9.40536 7.03961C9.40492 7.03961 9.40445 7.03961 9.40401 7.03961H6.65781C6.52462 7.03961 6.41669 7.14755 6.41669 7.28074V9.72686C6.41747 9.85952 6.52519 9.96667 6.65786 9.96667Z" fill="#2496ED"/>
<path d="M10.4998 9.96667H13.246C13.3785 9.96667 13.4858 9.8593 13.4858 9.7269V7.28074C13.4865 7.14829 13.3798 7.04035 13.2473 7.03961C13.2469 7.03961 13.2464 7.03961 13.246 7.03961H10.4998C10.3673 7.03961 10.26 7.14698 10.26 7.27939V7.28074V9.72686C10.2601 9.85931 10.3674 9.96667 10.4998 9.96667Z" fill="#2496ED"/>
<path d="M14.2963 9.96667H17.0425C17.1752 9.96667 17.2829 9.85957 17.2836 9.7269V7.28074C17.2836 7.14755 17.1757 7.03961 17.0425 7.03961H14.2963C14.1638 7.03961 14.0565 7.14698 14.0565 7.27939V7.28074V9.72686C14.0565 9.85931 14.1639 9.96667 14.2963 9.96667Z" fill="#2496ED"/>
<path d="M6.65781 6.44753H9.40401C9.53663 6.44679 9.64378 6.33903 9.64378 6.2064V3.76028C9.64378 3.62783 9.53641 3.52051 9.40401 3.52051H6.65781C6.52519 3.52051 6.41743 3.62762 6.41669 3.76028V6.2064C6.41743 6.33929 6.52493 6.44679 6.65781 6.44753Z" fill="#2496ED"/>
<path d="M10.4998 6.44753H13.246C13.3786 6.44679 13.4858 6.33903 13.4858 6.2064V3.76028C13.4858 3.62783 13.3784 3.52051 13.246 3.52051H10.4998C10.3673 3.52051 10.26 3.62788 10.26 3.76028V6.2064C10.26 6.33903 10.3672 6.44679 10.4998 6.44753Z" fill="#2496ED"/>
<path d="M14.2963 6.44753H17.0425C17.1754 6.44679 17.2829 6.33929 17.2836 6.2064V3.76028C17.2829 3.62762 17.1752 3.52051 17.0425 3.52051H14.2963C14.1638 3.52051 14.0565 3.62788 14.0565 3.76028V6.2064C14.0565 6.33903 14.1637 6.44679 14.2963 6.44753Z" fill="#2496ED"/>
<path d="M14.2963 2.92706H17.0425C17.1752 2.92706 17.2829 2.81991 17.2836 2.68729V0.239775C17.2829 0.107108 17.1752 0 17.0425 0H14.2963C14.1638 0 14.0565 0.107326 14.0565 0.239775V2.68724C14.0565 2.81969 14.1639 2.92706 14.2963 2.92706Z" fill="#2496ED"/>
<path d="M18.1262 9.96667H20.8724C21.0051 9.96667 21.1128 9.85957 21.1135 9.7269V7.28074C21.1135 7.14755 21.0056 7.03961 20.8724 7.03961H18.1262C17.9938 7.03961 17.8864 7.14698 17.8864 7.27939V7.28074V9.72686C17.8864 9.85931 17.9938 9.96667 18.1262 9.96667Z" fill="#2496ED"/>
</svg>
