<svg width="21" height="32" viewBox="0 0 21 32" fill="none" xmlns="http://www.w3.org/2000/svg">
<path d="M5.18519 31.1111C8.04741 31.1111 10.3704 28.7881 10.3704 25.9259V20.7408H5.18519C2.32296 20.7408 0 23.0637 0 25.9259C0 28.7881 2.32296 31.1111 5.18519 31.1111Z" fill="#0ACF83"/>
<path d="M0 15.5555C0 12.6933 2.32296 10.3703 5.18519 10.3703H10.3704V20.7407H5.18519C2.32296 20.7407 0 18.4177 0 15.5555Z" fill="#A259FF"/>
<path d="M0 5.18518C0 2.32296 2.32296 0 5.18519 0H10.3704V10.3704H5.18519C2.32296 10.3704 0 8.0474 0 5.18518Z" fill="#F24E1E"/>
<path d="M10.3704 0H15.5556C18.4178 0 20.7408 2.32296 20.7408 5.18518C20.7408 8.0474 18.4178 10.3704 15.5556 10.3704H10.3704V0Z" fill="#FF7262"/>
<path d="M20.7408 15.5555C20.7408 18.4177 18.4178 20.7407 15.5556 20.7407C12.6933 20.7407 10.3704 18.4177 10.3704 15.5555C10.3704 12.6933 12.6933 10.3703 15.5556 10.3703C18.4178 10.3703 20.7408 12.6933 20.7408 15.5555Z" fill="#1ABCFE"/>
</svg>
