<svg width="32" height="32" viewBox="0 0 32 32" fill="none" xmlns="http://www.w3.org/2000/svg">
<path d="M30.6949 14.1694L17.0356 0.586706C16.2495 -0.195569 14.9736 -0.195569 14.1865 0.586706L11.3501 3.40737L14.9482 6.98551C15.7843 6.70454 16.7432 6.89302 17.4097 7.55584C18.0794 8.2229 18.2676 9.18455 17.9782 10.0187L21.4458 13.4672C22.2848 13.1798 23.2528 13.3657 23.9228 14.0331C24.8593 14.964 24.8593 16.4728 23.9228 17.4043C22.9861 18.336 21.4689 18.336 20.5317 17.4043C19.8273 16.7031 19.6533 15.6744 20.0099 14.8114L16.776 11.5955L16.7757 20.0584C17.0101 20.1736 17.2242 20.3259 17.4097 20.5092C18.3462 21.4401 18.3462 22.949 17.4097 23.8813C16.473 24.8124 14.955 24.8124 14.0197 23.8813C13.0832 22.949 13.0832 21.4403 14.0197 20.5094C14.2441 20.2861 14.5108 20.1092 14.8044 19.9891V11.4474C14.5104 11.3281 14.2435 11.1511 14.0197 10.9271C13.3101 10.2225 13.1395 9.18723 13.5031 8.32086L9.95618 4.79327L0.590258 14.1065C-0.196753 14.8896 -0.196753 16.1584 0.590258 16.9408L14.2498 30.5237C15.0362 31.3061 16.3118 31.3061 17.0992 30.5237L30.6948 17.0039C31.4815 16.2213 31.4815 14.9517 30.6948 14.1694" fill="#DE4C36"/>
</svg>
