<svg width="32" height="31" viewBox="0 0 32 31" fill="none" xmlns="http://www.w3.org/2000/svg">
<path d="M15.5556 0C6.96559 0 0 6.96437 0 15.5556C0 22.4286 4.45715 28.2595 10.6379 30.3164C11.4153 30.4604 11.7008 29.9789 11.7008 29.568C11.7008 29.1972 11.6863 27.9717 11.6797 26.6719C7.35197 27.6129 6.4388 24.8365 6.4388 24.8365C5.7312 23.0385 4.71164 22.5605 4.71164 22.5605C3.30035 21.595 4.81803 21.6147 4.81803 21.6147C6.38011 21.7245 7.20264 23.2178 7.20264 23.2178C8.59002 25.596 10.8417 24.9084 11.7293 24.511C11.8689 23.5055 12.2721 22.8194 12.7169 22.4309C9.26188 22.0375 5.62969 20.7036 5.62969 14.7432C5.62969 13.045 6.23737 11.6572 7.23253 10.5679C7.071 10.176 6.53859 8.59393 7.3832 6.45124C7.3832 6.45124 8.68945 6.03315 11.6621 8.04578C12.9028 7.70101 14.2336 7.52826 15.5556 7.5224C16.8776 7.52826 18.2094 7.70101 19.4525 8.04578C22.4217 6.03315 23.7261 6.45124 23.7261 6.45124C24.5728 8.59393 24.0401 10.176 23.8786 10.5679C24.8759 11.6572 25.4795 13.0449 25.4795 14.7432C25.4795 20.7178 21.8404 22.0334 18.3766 22.4185C18.9345 22.9012 19.4317 23.848 19.4317 25.2991C19.4317 27.3805 19.4136 29.0556 19.4136 29.568C19.4136 29.982 19.6936 30.4671 20.4822 30.3143C26.6596 28.2551 31.1111 22.4263 31.1111 15.5556C31.1111 6.96437 24.1465 0 15.5556 0Z" fill="white"/>
<path d="M5.82606 22.1594C5.7919 22.2366 5.67014 22.2598 5.55949 22.2068C5.44664 22.1561 5.3832 22.0506 5.4198 21.9731C5.45335 21.8935 5.57511 21.8713 5.68771 21.9247C5.80081 21.9754 5.86522 22.0818 5.82606 22.1594ZM6.59125 22.8421C6.51707 22.9109 6.37201 22.8789 6.27356 22.7702C6.17181 22.6617 6.15278 22.5168 6.22805 22.4469C6.30455 22.3782 6.44521 22.4103 6.5472 22.5189C6.64895 22.6286 6.66872 22.7726 6.59113 22.8422L6.59125 22.8421ZM7.11621 23.7156C7.02081 23.7818 6.86489 23.7197 6.76864 23.5814C6.67335 23.4432 6.67335 23.2772 6.77071 23.2107C6.86733 23.1443 7.02081 23.204 7.11841 23.3413C7.21357 23.482 7.21357 23.6479 7.11609 23.7157L7.11621 23.7156ZM8.00389 24.7273C7.91861 24.8213 7.73707 24.7961 7.60409 24.6678C7.46818 24.5424 7.43024 24.3644 7.51576 24.2703C7.60202 24.1761 7.78465 24.2026 7.91861 24.3299C8.05366 24.455 8.0949 24.6344 8.00401 24.7273H8.00389ZM9.15118 25.0689C9.11372 25.1907 8.93878 25.2461 8.76261 25.1943C8.58668 25.141 8.47152 24.9983 8.50702 24.8752C8.54362 24.7526 8.7193 24.6949 8.89681 24.7503C9.07249 24.8033 9.1879 24.945 9.1513 25.0689H9.15118ZM10.4571 25.2137C10.4615 25.3421 10.312 25.4485 10.1271 25.4508C9.94101 25.4548 9.79058 25.351 9.78863 25.2248C9.78863 25.0953 9.93466 24.9899 10.1206 24.9868C10.3055 24.9832 10.4571 25.0863 10.4571 25.2137ZM11.7398 25.1646C11.762 25.2898 11.6334 25.4183 11.4498 25.4525C11.2692 25.4854 11.1021 25.4082 11.079 25.2841C11.0566 25.1558 11.1876 25.0273 11.3678 24.994C11.5518 24.9621 11.7164 25.0373 11.7398 25.1646Z" fill="white"/>
</svg>
