<svg width="32" height="31" viewBox="0 0 32 31" fill="none" xmlns="http://www.w3.org/2000/svg">
<path d="M28.8167 23.9762C27.1145 23.9333 25.7953 24.1052 24.6888 24.5776C24.3696 24.7064 23.8589 24.7065 23.8163 25.1147C23.9866 25.2865 24.0078 25.5658 24.1568 25.8019C24.4124 26.2314 24.8589 26.8114 25.2633 27.1123C25.71 27.4558 26.157 27.7994 26.6249 28.1002C27.4549 28.6157 28.3912 28.9163 29.1997 29.4318C29.668 29.7323 30.1358 30.1192 30.604 30.4413C30.838 30.6129 30.9869 30.8924 31.2849 30.9997V30.9354C31.1358 30.7419 31.0933 30.4628 30.9444 30.248C30.7319 30.0332 30.5188 29.8399 30.306 29.6251C29.689 28.7875 28.9231 28.0572 28.0933 27.4558C27.4124 26.9833 25.9228 26.339 25.6463 25.5442C25.6463 25.5442 25.6249 25.5228 25.6037 25.5013C26.0718 25.4584 26.6249 25.2865 27.0719 25.1576C27.7953 24.9642 28.4549 25.0073 29.1997 24.8139C29.5401 24.728 29.8806 24.6206 30.2209 24.5132V24.32C29.8381 23.9333 29.5615 23.4179 29.1571 23.0527C28.072 22.1075 26.8803 21.184 25.6463 20.4108C24.9866 19.9812 24.1354 19.702 23.4333 19.3369C23.1782 19.2079 22.7524 19.1436 22.6036 18.9288C22.2204 18.4563 22.0076 17.8335 21.7311 17.275C21.1142 16.0935 20.5183 14.7834 19.9863 13.5378C19.6035 12.7 19.3694 11.8623 18.9012 11.0892C16.7096 7.43783 14.3265 5.22554 10.6668 3.05609C9.87944 2.60511 8.94323 2.41178 7.94319 2.17561C7.41143 2.15401 6.87931 2.11117 6.34742 2.08957C6.00694 1.9392 5.66646 1.53119 5.36854 1.33786C4.15594 0.564544 1.02788 -1.1106 0.13424 1.10169C-0.440323 2.49771 0.985445 3.87224 1.47464 4.58123C1.83665 5.07517 2.30457 5.63355 2.55993 6.19206C2.70889 6.55699 2.75133 6.94389 2.90029 7.33042C3.24089 8.27522 3.55985 9.32791 4.00686 10.2086C4.24094 10.6596 4.49618 11.1321 4.7941 11.5402C4.96434 11.7764 5.26214 11.8839 5.3261 12.2704C5.0283 12.7 5.0069 13.3445 4.83654 13.8814C4.07057 16.3085 4.36862 19.3154 5.45366 21.0981C5.79402 21.6349 6.60266 22.8166 7.68783 22.3654C8.64543 21.9788 8.43263 20.7545 8.70903 19.6806C8.77311 19.4226 8.73055 19.251 8.85811 19.0791V19.1222C9.15603 19.7234 9.45383 20.3036 9.73047 20.9049C10.3902 21.9572 11.539 23.0527 12.4965 23.7831C13.0074 24.1695 13.4116 24.8354 14.05 25.0717V25.0071H14.0073C13.8796 24.8138 13.6881 24.728 13.518 24.5775C13.135 24.1911 12.7093 23.7185 12.4115 23.2889C11.518 22.086 10.7305 20.7544 10.0284 19.3798C9.68804 18.7141 9.38999 17.9837 9.11347 17.318C8.98567 17.0599 8.98567 16.6735 8.77299 16.5448C8.45379 17.0172 7.98575 17.4254 7.75167 18.0052C7.34759 18.9288 7.30491 20.0671 7.15595 21.2483C7.07083 21.2701 7.11326 21.2483 7.0707 21.2916C6.38999 21.1195 6.1559 20.4108 5.90042 19.8094C5.26202 18.2845 5.15562 15.8359 5.70902 14.0747C5.85798 13.6236 6.49639 12.2061 6.24102 11.7765C6.11334 11.3683 5.68762 11.1321 5.45366 10.81C5.17714 10.4018 4.8791 9.88653 4.6877 9.43531C4.17697 8.2325 3.92161 6.90081 3.36845 5.698C3.11309 5.13949 2.66645 4.55975 2.30457 4.04421C1.90037 3.46435 1.45349 3.05609 1.13428 2.36882C1.02801 2.13265 0.878922 1.746 1.04916 1.48822C1.09172 1.31638 1.17672 1.25206 1.34708 1.2091C1.62373 0.972682 2.41109 1.27342 2.68749 1.4023C3.47485 1.72427 4.13441 2.02525 4.7941 2.47622C5.0919 2.69103 5.4111 3.09917 5.79402 3.20658H6.2409C6.92187 3.35682 7.68771 3.24954 8.32611 3.44274C9.45395 3.8078 10.4752 4.34482 11.3902 4.92481C14.1777 6.70748 16.4754 9.24198 18.0289 12.2704C18.2842 12.7642 18.3905 13.2156 18.6246 13.7309C19.0716 14.7834 19.6248 15.8574 20.0714 16.8883C20.5183 17.8977 20.9438 18.9288 21.5822 19.7665C21.9014 20.2174 23.1779 20.4538 23.7525 20.6901C24.1781 20.8833 24.8378 21.0553 25.2207 21.2914C25.9441 21.7423 26.6675 22.2581 27.3485 22.7519C27.6889 23.0097 28.7527 23.5467 28.8167 23.9762Z" fill="#00546B"/>
<path d="M7.11314 5.31122C6.75151 5.31122 6.49627 5.35443 6.24091 5.41875V5.46171H6.28347C6.45383 5.8054 6.75151 6.04169 6.96418 6.3423C7.13455 6.68587 7.28339 7.02969 7.45375 7.37339C7.47491 7.35178 7.49619 7.33043 7.49619 7.33043C7.79423 7.11549 7.94307 6.77192 7.94307 6.25638C7.81539 6.10614 7.79411 5.95577 7.68771 5.8054C7.56015 5.59047 7.28339 5.48319 7.11314 5.31122Z" fill="#00546B"/>
</svg>
