<svg width="32" height="19" viewBox="0 0 32 19" fill="none" xmlns="http://www.w3.org/2000/svg">
<path d="M7.34088 4.8717H13.2087V5.33585H7.87877V8.82914H12.8909V9.29328H7.87877V13.1286H13.2698V13.5927H7.34088V4.8717ZM13.7344 4.8717H14.3578L17.1206 8.70699L19.9445 4.8717L23.7855 0L17.4751 9.11007L20.7269 13.5927H20.079L17.1206 9.51314L14.15 13.5927H13.5143L16.7905 9.11007L13.7344 4.8717ZM20.9592 5.33585V4.8717H27.6461V5.33585H24.5654V13.5927H24.0276V5.33585H20.9592Z" fill="white"/>
<path d="M0 4.8717H0.672357L9.94376 18.6788L6.11233 13.5927L0.562335 5.53128L0.537885 13.5927H0V4.8717Z" fill="white"/>
<path d="M27.5919 12.9885C27.7031 12.9885 27.7842 12.9038 27.7842 12.7943C27.7842 12.6848 27.7031 12.6 27.5919 12.6C27.482 12.6 27.3996 12.6848 27.3996 12.7943C27.3996 12.9038 27.482 12.9885 27.5919 12.9885ZM28.1204 12.4775C28.1204 12.8008 28.3546 13.012 28.6961 13.012C29.0598 13.012 29.2796 12.7943 29.2796 12.4162V11.0851H28.9865V12.4149C28.9865 12.6248 28.8805 12.7369 28.6935 12.7369C28.526 12.7369 28.4122 12.6326 28.4083 12.4775H28.1204ZM29.6629 12.4605C29.6838 12.7969 29.9651 13.012 30.3837 13.012C30.8312 13.012 31.1111 12.7864 31.1111 12.4266C31.1111 12.1437 30.9515 11.9873 30.5643 11.8973L30.3563 11.8465C30.1103 11.7891 30.0109 11.7122 30.0109 11.5779C30.0109 11.4085 30.1653 11.2976 30.3968 11.2976C30.6166 11.2976 30.7684 11.4059 30.7958 11.5792H31.081C31.064 11.2624 30.7841 11.0395 30.4007 11.0395C29.9886 11.0395 29.7139 11.2624 29.7139 11.5975C29.7139 11.8739 29.8696 12.0381 30.211 12.1177L30.4544 12.1763C30.7043 12.235 30.8142 12.321 30.8142 12.4644C30.8142 12.6313 30.6415 12.7525 30.406 12.7525C30.1535 12.7525 29.9782 12.6391 29.9533 12.4605H29.6629Z" fill="white"/>
</svg>
