<svg width="29" height="32" viewBox="0 0 29 32" fill="none" xmlns="http://www.w3.org/2000/svg">
<path d="M12.8422 0.331912C13.6136 -0.109639 14.6184 -0.111634 15.3891 0.331912C19.2667 2.52294 23.1455 4.71053 27.0224 6.90288C27.7516 7.31363 28.2393 8.12515 28.2319 8.96537V22.1474C28.2373 23.0224 27.7014 23.8533 26.9321 24.2548C23.0672 26.4337 19.2044 28.6153 15.3403 30.7943C14.5529 31.2445 13.528 31.2098 12.7652 30.7227C11.6065 30.051 10.4459 29.3827 9.28708 28.7116C9.05029 28.5705 8.78336 28.4581 8.61616 28.2285C8.76397 28.0293 9.02824 28.0045 9.24298 27.9175C9.72663 27.7637 10.1708 27.5168 10.6152 27.2773C10.7275 27.2004 10.8647 27.2299 10.9724 27.2987C11.9632 27.8668 12.9452 28.4514 13.9394 29.014C14.1515 29.1365 14.3662 28.9739 14.5475 28.8728C18.34 26.7294 22.1373 24.594 25.9292 22.4498C26.0697 22.3822 26.1474 22.2331 26.1359 22.0792C26.1386 17.7307 26.1366 13.3814 26.1373 9.03296C26.1533 8.85834 26.0523 8.69778 25.8944 8.62632C22.043 6.45734 18.1936 4.28504 14.3428 2.11551C14.2761 2.06965 14.1971 2.04504 14.1161 2.04492C14.0351 2.0448 13.956 2.06918 13.8892 2.11485C10.0384 4.28504 6.18968 6.45934 2.33893 8.6282C2.18159 8.69978 2.076 8.85767 2.09472 9.03296C2.09539 13.3814 2.09472 17.7307 2.09472 22.0798C2.08804 22.1549 2.10454 22.2303 2.14198 22.2957C2.17942 22.3611 2.23602 22.4135 2.30414 22.4458C3.33173 23.0285 4.36065 23.6071 5.3889 24.1879C5.96818 24.4997 6.67943 24.6849 7.31766 24.446C7.88087 24.244 8.27566 23.6693 8.26491 23.0713C8.27023 18.7482 8.26226 14.4244 8.2689 10.102C8.25483 9.91008 8.43688 9.75152 8.62347 9.76958C9.11721 9.76626 9.61162 9.76294 10.1054 9.77091C10.3115 9.76626 10.4533 9.97291 10.4278 10.1663C10.4258 14.5167 10.4331 18.8673 10.4245 23.2178C10.4258 24.3772 9.94946 25.6388 8.87699 26.2061C7.55577 26.8906 5.92275 26.7454 4.61749 26.0891C3.48752 25.5252 2.40918 24.8596 1.29926 24.2553C0.527963 23.8561 -0.00533399 23.0219 9.53685e-05 22.1475V8.96537C-0.00799327 8.10776 0.499154 7.2815 1.25106 6.87673C5.11522 4.69601 8.97871 2.51363 12.8422 0.331912Z" fill="#8CC84B"/>
<path d="M16.2133 9.46319C17.8986 9.35472 19.7028 9.39893 21.2194 10.2292C22.3936 10.8654 23.0445 12.2007 23.0653 13.5052C23.0325 13.6811 22.8485 13.7782 22.6805 13.7661C22.1916 13.7655 21.7025 13.7728 21.2135 13.7628C21.0061 13.7708 20.8855 13.5795 20.8595 13.3962C20.719 12.772 20.3786 12.1538 19.7911 11.8528C18.8893 11.4013 17.8437 11.424 16.8603 11.4334C16.1424 11.4715 15.3704 11.5337 14.7622 11.9558C14.2953 12.2756 14.1535 12.9211 14.3201 13.441C14.4772 13.8143 14.9081 13.9348 15.2607 14.0458C17.2917 14.577 19.444 14.5241 21.4362 15.2232C22.261 15.5082 23.0679 16.0622 23.3502 16.9258C23.7196 18.0832 23.5577 19.4667 22.7342 20.3959C22.0664 21.1606 21.0937 21.5768 20.1237 21.8028C18.8331 22.0906 17.4938 22.0979 16.1833 21.9701C14.9509 21.8296 13.6685 21.5059 12.7171 20.6662C11.9036 19.9598 11.5063 18.8592 11.5457 17.7969C11.5551 17.6175 11.7337 17.4924 11.9056 17.5072C12.398 17.5032 12.8904 17.5019 13.3828 17.5078C13.5795 17.4938 13.7253 17.6637 13.7354 17.8491C13.8263 18.4438 14.0497 19.068 14.5683 19.4205C15.5691 20.0662 16.8248 20.022 17.9707 20.04C18.9201 19.9979 19.9858 19.9852 20.7605 19.3577C21.1693 18.9998 21.2904 18.401 21.1799 17.8859C21.0603 17.451 20.6053 17.2483 20.2146 17.1158C18.2096 16.4816 16.0333 16.7117 14.0478 15.9945C13.2417 15.7096 12.4622 15.171 12.1525 14.3429C11.7203 13.1708 11.9183 11.721 12.8281 10.8232C13.7152 9.93012 14.9958 9.58619 16.2133 9.46308V9.46319Z" fill="#8CC84B"/>
</svg>
