<svg width="552" height="552" viewBox="0 0 552 552" fill="none" xmlns="http://www.w3.org/2000/svg">
<rect x="0.5" y="0.5" width="551" height="551" rx="4.5" stroke="#9747FF" stroke-dasharray="10 5"/>
<path d="M188.761 300.703C169.648 306.127 157.109 315.638 148.848 325.141C156.76 318.217 167.358 311.863 181.653 307.811C196.275 303.667 208.748 303.696 219.055 305.685V297.626C210.263 296.822 200.183 297.462 188.761 300.703ZM147.975 232.95L76.993 251.65C76.993 251.65 78.2866 253.477 80.682 255.916L140.866 240.057C140.866 240.057 140.013 251.046 132.607 260.877C146.616 250.278 147.975 232.95 147.975 232.95ZM207.391 399.769C107.501 426.673 54.6522 310.911 38.6518 250.825C31.2594 223.091 28.0323 202.085 27.1722 188.53C27.0798 187.122 27.1225 185.936 27.2221 184.849C22.0403 185.162 19.5594 187.855 20.0642 195.639C20.9243 209.187 24.1513 230.191 31.5437 257.934C47.537 318.011 100.393 433.774 200.284 406.869C222.026 401.012 238.361 390.343 250.623 376.724C239.321 386.932 225.175 394.971 207.391 399.769ZM226.163 162.102V169.211H265.344C264.54 166.694 263.73 164.426 262.926 162.102H226.163Z" fill="#2D4552"/>
<path d="M274.101 220.651C291.721 225.655 301.04 238.009 305.966 248.942L325.613 254.522C325.613 254.522 322.933 216.259 288.323 206.428C255.946 197.229 236.022 224.418 233.598 227.936C243.017 221.226 256.771 215.732 274.101 220.651ZM430.493 249.118C398.086 239.878 378.169 267.123 375.781 270.592C385.207 263.89 398.954 258.394 416.276 263.335C433.869 268.347 443.181 280.686 448.121 291.626L467.796 297.227C467.796 297.227 465.073 258.956 430.493 249.118ZM410.974 350.004L247.537 304.313C247.537 304.313 249.307 313.284 256.096 324.899L393.702 363.368C405.031 356.814 410.974 350.004 410.974 350.004ZM297.663 448.352C168.253 413.657 183.898 248.771 204.838 170.638C213.46 138.439 222.324 114.506 229.675 98.4628C225.289 97.5599 221.657 99.8702 218.067 107.17C210.263 123 200.282 148.774 190.623 184.855C169.689 262.986 154.044 427.866 283.448 462.561C344.442 478.902 391.959 454.067 427.38 415.064C393.758 445.516 350.832 462.59 297.663 448.352Z" fill="#2D4552"/>
<path d="M226.163 361.13V327.857L133.715 354.071C133.715 354.071 140.547 314.38 188.76 300.703C203.382 296.559 215.857 296.587 226.163 298.578V162.102H272.451C267.411 146.528 262.536 134.538 258.441 126.206C251.667 112.417 244.722 121.558 228.957 134.744C217.854 144.02 189.791 163.809 147.562 175.188C105.333 186.575 71.1926 183.555 56.948 181.089C36.7538 177.605 26.1911 173.17 27.1793 188.53C28.0392 202.078 31.2664 223.083 38.6588 250.825C54.652 310.903 107.508 426.666 207.398 399.762C233.491 392.731 251.909 378.835 264.675 361.122H226.163V361.13ZM76.9858 251.65L147.975 232.95C147.975 232.95 145.906 260.259 119.293 267.274C92.6732 274.283 76.9858 251.65 76.9858 251.65Z" fill="#E2574C"/>
<path d="M493.328 163.68C474.876 166.915 430.606 170.945 375.896 156.28C321.171 141.625 284.861 115.992 270.476 103.944C250.083 86.863 241.112 74.9925 232.284 92.9477C224.479 108.784 214.499 134.558 204.839 170.639C183.906 248.771 168.261 413.651 297.663 448.346C427.039 483.012 495.915 332.391 516.849 254.252C526.51 218.178 530.746 190.862 531.912 173.248C533.241 153.296 519.536 159.088 493.328 163.68ZM233.336 228.322C233.336 228.322 253.729 196.605 288.316 206.435C322.925 216.266 325.606 254.529 325.606 254.529L233.336 228.322ZM317.765 370.648C256.928 352.827 247.545 304.313 247.545 304.313L410.974 350.006C410.974 349.998 377.986 388.246 317.765 370.648ZM375.547 270.948C375.547 270.948 395.912 239.253 430.493 249.112C465.073 258.958 467.796 297.221 467.796 297.221L375.547 270.948Z" fill="#2EAD33"/>
<path d="M193.857 337.018L133.716 354.064C133.716 354.064 140.249 316.847 184.553 302.097L150.498 174.294L147.555 175.188C105.326 186.577 71.1857 183.555 56.9412 181.089C36.7471 177.606 26.1844 173.17 27.1724 188.531C28.0325 202.079 31.2596 223.083 38.652 250.827C54.6453 310.903 107.501 426.666 207.391 399.762L210.334 398.838L193.857 337.018ZM76.986 251.652L147.975 232.95C147.975 232.95 145.906 260.259 119.293 267.274C92.6736 274.283 76.986 251.652 76.986 251.652Z" fill="#D65348"/>
<path d="M320.509 371.315L317.758 370.646C256.92 352.827 247.538 304.313 247.538 304.313L331.811 327.87L376.428 156.423L375.888 156.28C321.163 141.625 284.855 115.992 270.468 103.944C250.075 86.863 241.105 74.9925 232.277 92.9477C224.479 108.784 214.499 134.558 204.839 170.639C183.906 248.771 168.261 413.651 297.663 448.345L300.315 448.943L320.509 371.315ZM233.336 228.322C233.336 228.322 253.729 196.605 288.316 206.435C322.925 216.266 325.606 254.529 325.606 254.529L233.336 228.322Z" fill="#1D8D22"/>
<path d="M196.921 336.145L180.793 340.722C184.603 362.202 191.319 382.816 201.861 401.027C203.695 400.622 205.515 400.273 207.384 399.762C212.282 398.44 216.823 396.804 221.196 395.02C209.418 377.542 201.626 357.411 196.921 336.145ZM190.624 184.856C182.335 215.79 174.921 260.315 176.962 304.975C180.615 303.389 184.474 301.912 188.761 300.696L191.746 300.028C188.107 252.325 195.975 203.714 204.839 170.639C207.086 162.272 209.339 154.49 211.585 147.233C207.967 149.535 204.072 151.894 199.636 154.325C196.644 163.56 193.623 173.653 190.624 184.856Z" fill="#C04B41"/>
</svg>
