<svg width="31" height="32" viewBox="0 0 31 32" fill="none" xmlns="http://www.w3.org/2000/svg">
<path d="M30.1811 18.6362C29.9992 18.0869 29.5227 17.7043 28.9066 17.6125C28.616 17.5693 28.2833 17.5877 27.8895 17.6686C27.2032 17.8098 26.6941 17.8636 26.3225 17.874C27.7251 15.5126 28.8656 12.8197 29.5221 10.2849C30.5838 6.18604 30.0165 4.31878 29.3535 3.47418C27.599 1.23861 25.0392 0.0376372 21.9511 0.000889701C20.3037 -0.0191973 18.8575 0.305149 18.1031 0.538395C17.4007 0.414801 16.6454 0.345796 15.8529 0.333035C14.3674 0.309403 13.0549 0.632332 11.9334 1.29603C11.3125 1.08665 10.316 0.791492 9.16517 0.603146C6.45859 0.16005 4.27716 0.505311 2.68155 1.62936C0.749429 2.99031 -0.146248 5.35491 0.0194028 8.65746C0.0720131 9.706 0.660205 12.8963 1.58633 15.9219C2.1186 17.6609 2.68617 19.1051 3.2733 20.2146C4.10594 21.7879 4.99687 22.7144 5.99706 23.0471C6.55764 23.2333 7.5762 23.3638 8.64748 22.474C8.78327 22.638 8.96444 22.801 9.20486 22.9523C9.51022 23.1444 9.88358 23.3013 10.2565 23.3943C11.6003 23.7292 12.859 23.6455 13.9329 23.1759C13.9395 23.3664 13.9446 23.5483 13.9489 23.7055C13.956 23.9604 13.9631 24.2103 13.9725 24.444C14.0361 26.0242 14.1439 27.253 14.4634 28.1127C14.4809 28.16 14.5045 28.232 14.5294 28.3085C14.6888 28.7951 14.9553 29.6097 15.6333 30.2476C16.3353 30.9085 17.1846 31.1111 17.9623 31.1111C18.3524 31.1111 18.7246 31.0601 19.051 30.9904C20.2146 30.7416 21.5362 30.3628 22.4921 29.0054C23.396 27.7222 23.8354 25.7895 23.9149 22.7442C23.9252 22.658 23.9347 22.5758 23.9438 22.4974L23.9627 22.3365L24.1757 22.3552L24.2305 22.3588C25.4157 22.4127 26.8648 22.1621 27.7548 21.7498C28.4581 21.4244 30.7117 20.238 30.1811 18.6362Z" fill="black"/>
<path d="M28.1546 18.9477C24.6307 19.6726 24.3884 18.4829 24.3884 18.4829C28.109 12.9775 29.6645 5.9892 28.3223 4.27885C24.6604 -0.386671 18.3217 1.81983 18.2159 1.87702L18.1819 1.88317C17.4857 1.73901 16.7066 1.65323 15.8308 1.63893C14.2364 1.61294 13.0268 2.0558 12.109 2.74987C12.109 2.74987 0.801322 -1.89545 1.32731 8.59213C1.43916 10.8232 4.53416 25.4739 8.22565 21.0487C9.57492 19.4305 10.8787 18.0624 10.8787 18.0624C11.5261 18.4913 12.3013 18.7101 13.1139 18.6315L13.1771 18.5781C13.1574 18.779 13.1664 18.9755 13.2023 19.2081C12.2513 20.2677 12.5308 20.4537 10.6297 20.8439C8.70602 21.2393 9.83607 21.9431 10.5739 22.1272C11.4684 22.3501 13.5377 22.6661 14.936 20.7142L14.8803 20.9369C15.2528 21.2346 15.5144 22.8727 15.4706 24.3579C15.4267 25.8429 15.3975 26.8625 15.691 27.6589C15.9847 28.4553 16.2773 30.2472 18.7765 29.7132C20.8647 29.2669 21.9469 28.1105 22.0975 26.1814C22.2042 24.8101 22.4461 25.0128 22.4612 23.7867L22.6552 23.2063C22.8788 21.3473 22.6908 20.7475 23.9772 21.0265L24.29 21.0539C25.2368 21.0968 26.4762 20.902 27.2036 20.5648C28.7698 19.8401 29.6988 18.6298 28.1544 18.9477H28.1546Z" fill="#336791"/>
<path d="M12.7709 9.58987C12.4533 9.5458 12.1658 9.58657 12.0203 9.69645C11.9385 9.75825 11.9131 9.82985 11.9063 9.87913C11.888 10.0097 11.9797 10.1541 12.0361 10.2285C12.1956 10.4393 12.4286 10.5842 12.6592 10.6161C12.6926 10.6208 12.7259 10.6229 12.7589 10.6229C13.1434 10.6229 13.4931 10.3243 13.5239 10.104C13.5624 9.82796 13.1606 9.64399 12.7709 9.58999V9.58987ZM23.2911 9.59862C23.2607 9.38227 22.8747 9.32059 22.5083 9.3714C22.1424 9.42221 21.7876 9.58692 21.8173 9.80374C21.841 9.97235 22.1463 10.2602 22.5077 10.2602C22.5383 10.2602 22.5691 10.2582 22.6001 10.2538C22.8414 10.2205 23.0184 10.0677 23.1025 9.97968C23.2305 9.84545 23.3047 9.69586 23.2911 9.59862Z" fill="white"/>
<path d="M29.3273 18.8654C29.1929 18.4602 28.7604 18.3299 28.0419 18.4778C25.9084 18.9169 25.1444 18.6128 24.8936 18.4285C26.5519 15.9094 27.916 12.8642 28.652 10.023C29.0006 8.67721 29.1931 7.42732 29.2089 6.40855C29.2263 5.29041 29.0353 4.46873 28.6415 3.96678C27.0534 1.94331 24.7227 0.857894 21.9014 0.828118C19.9618 0.806376 18.3231 1.30135 18.0054 1.44054C17.3364 1.27464 16.6071 1.17279 15.8131 1.15979C14.357 1.13628 13.0984 1.4839 12.0564 2.1925C11.6038 2.02448 10.434 1.62404 9.00346 1.39422C6.5303 0.997203 4.565 1.29804 3.16253 2.2888C1.48907 3.47111 0.716501 5.5845 0.866156 8.57015C0.916515 9.57463 1.49049 12.6647 2.39624 15.624C3.5885 19.519 4.88457 21.724 6.24817 22.1776C6.40778 22.2307 6.5918 22.2678 6.79477 22.2678C7.2922 22.2678 7.90208 22.0442 8.5366 21.2835C9.31054 20.3577 10.1111 19.4543 10.9374 18.5746C11.4734 18.8615 12.0623 19.0217 12.6646 19.0378C12.6658 19.0535 12.6673 19.0692 12.6688 19.0848C12.5651 19.2081 12.4636 19.3332 12.3642 19.46C11.9469 19.9882 11.8601 20.0983 10.5167 20.374C10.1346 20.4527 9.1197 20.6613 9.10477 21.3707C9.08866 22.1458 10.3045 22.4714 10.443 22.5059C10.9258 22.6264 11.3908 22.6858 11.8343 22.6858C12.913 22.6858 13.8622 22.3323 14.6208 21.6483C14.5975 24.4115 14.713 27.1344 15.0457 27.964C15.3182 28.6432 15.9839 30.303 18.0867 30.3028C18.3952 30.3028 18.7348 30.267 19.1084 30.1872C21.303 29.7181 22.2561 28.7508 22.6247 26.6184C22.822 25.4788 23.1605 22.7574 23.3198 21.2977C23.6558 21.4023 24.0884 21.4501 24.5561 21.45C25.5315 21.45 26.6571 21.2433 27.3629 20.9166C28.1559 20.5494 29.5868 19.6483 29.3273 18.8654ZM24.1011 9.00144C24.0939 9.43236 24.0344 9.82359 23.9713 10.2319C23.9034 10.6711 23.8333 11.1252 23.8156 11.6764C23.7982 12.2129 23.8654 12.7706 23.9303 13.31C24.0616 14.3994 24.1964 15.521 23.6749 16.6277C23.5882 16.4746 23.5111 16.3164 23.4438 16.154C23.379 15.9973 23.2382 15.7456 23.0433 15.3973C22.2851 14.0413 20.5095 10.8659 21.4184 9.57014C21.6892 9.18446 22.3763 8.78792 24.1011 9.00144ZM22.0104 1.70072C24.5383 1.75638 26.538 2.69941 27.9537 4.50346C29.0396 5.88723 27.8439 12.1836 24.3824 17.6155C24.3476 17.5713 24.3126 17.5274 24.2774 17.4835L24.2336 17.4289C25.1281 15.9558 24.9532 14.4983 24.7975 13.2061C24.7335 12.6758 24.673 12.175 24.6884 11.7044C24.7043 11.2058 24.7704 10.7781 24.8344 10.3645C24.913 9.8549 24.993 9.32755 24.9709 8.70592C24.9874 8.64069 24.994 8.56366 24.9854 8.4722C24.9291 7.87609 24.2466 6.092 22.8555 4.47723C22.0945 3.59399 20.9849 2.60559 19.4697 1.93893C20.1214 1.80423 21.0126 1.67863 22.0104 1.70072ZM7.86511 20.7267C7.16601 21.565 6.68327 21.4043 6.52449 21.3516C5.49006 21.0075 4.28974 18.8272 3.23149 15.3699C2.31578 12.3783 1.78068 9.37009 1.73826 8.52655C1.6046 5.85875 2.2531 3.99951 3.66588 3.00036C5.96509 1.37449 9.74522 2.34765 11.2642 2.8412C11.2424 2.8627 11.2196 2.88279 11.198 2.90465C8.70545 5.41483 8.76458 9.70354 8.77074 9.96573C8.7705 10.0669 8.77904 10.2101 8.79065 10.4071C8.83354 11.1284 8.91341 12.4709 8.70012 13.9913C8.502 15.4041 8.93876 16.787 9.89819 17.7853C9.99666 17.8875 10.1001 17.9849 10.2083 18.0769C9.78124 18.533 8.85309 19.5416 7.86511 20.7267ZM10.5287 17.1828C9.75541 16.3781 9.4042 15.2589 9.56499 14.1118C9.79013 12.5058 9.70706 11.107 9.66239 10.3555C9.65611 10.2504 9.65054 10.1582 9.64734 10.0855C10.0115 9.76356 11.6989 8.86201 12.9023 9.13696C13.4514 9.26233 13.786 9.63524 13.9251 10.2766C14.6451 13.5972 14.0204 14.9812 13.5185 16.0935C13.415 16.3226 13.3173 16.5392 13.2339 16.7632L13.1692 16.9364C13.0054 17.3743 12.853 17.7815 12.7586 18.1681C11.9365 18.1658 11.1368 17.8155 10.5287 17.1827V17.1828ZM10.6549 21.661C10.4148 21.6012 10.1989 21.4974 10.0723 21.4112C10.1781 21.3616 10.3664 21.294 10.6929 21.2269C12.2732 20.9026 12.5173 20.6736 13.0503 19.9988C13.1725 19.844 13.311 19.6686 13.5028 19.455L13.5031 19.4548C13.7887 19.1357 13.9194 19.1898 14.1564 19.2879C14.3485 19.3671 14.5356 19.6072 14.6114 19.8714C14.6473 19.9962 14.6876 20.233 14.5557 20.4173C13.4424 21.9718 11.82 21.9518 10.6549 21.661ZM18.9255 29.3357C16.9922 29.7488 16.3076 28.7651 15.8565 27.6406C15.5654 26.9146 15.4223 23.6409 15.5238 20.0256C15.5251 19.9775 15.5183 19.9311 15.505 19.8873C15.4931 19.801 15.4751 19.7156 15.451 19.6319C15.3 19.1058 14.9321 18.6658 14.4907 18.4834C14.3153 18.4109 13.9935 18.278 13.6067 18.3767C13.6892 18.0378 13.8322 17.6551 13.9873 17.2407L14.0524 17.0664C14.1256 16.8699 14.2176 16.6663 14.3147 16.4508C14.84 15.2872 15.5594 13.6933 14.7786 10.0926C14.4862 8.74397 13.5096 8.08535 12.0291 8.23836C11.1416 8.32994 10.3296 8.68701 9.92461 8.89178C9.83752 8.93574 9.7579 8.97828 9.68348 9.01963C9.79652 7.6608 10.2236 5.12132 11.8211 3.51459C12.827 2.50314 14.1665 2.00357 15.7986 2.03051C19.0145 2.08297 21.0767 3.72869 22.2405 5.10017C23.2434 6.28188 23.7865 7.47234 24.0032 8.11441C22.3734 7.94911 21.2649 8.26991 20.703 9.07103C19.4805 10.8136 21.3717 14.1958 22.2807 15.8214C22.4474 16.1192 22.5913 16.3767 22.6365 16.4861C22.9325 17.2015 23.3157 17.6791 23.5955 18.0276C23.6813 18.1344 23.7645 18.2381 23.8277 18.3286C23.3341 18.4705 22.4474 18.7984 22.5282 20.4374C22.4631 21.2598 21.9996 25.1101 21.7642 26.4705C21.4534 28.2677 20.7902 28.937 18.9255 29.3358V29.3357ZM26.9952 20.1268C26.4905 20.3604 25.6457 20.5357 24.8433 20.5734C23.957 20.6147 23.5058 20.4744 23.3996 20.388C23.3498 19.3666 23.731 19.2599 24.1345 19.147C24.1979 19.1292 24.2597 19.1119 24.3195 19.0911C24.3566 19.1212 24.3972 19.1511 24.4417 19.1804C25.1541 19.6492 26.4247 19.6998 28.2186 19.3306L28.2382 19.3267C27.9963 19.5522 27.5823 19.855 26.9952 20.1268Z" fill="white"/>
</svg>
