<svg width="32" height="34" viewBox="0 0 32 34" fill="none" xmlns="http://www.w3.org/2000/svg">
<path d="M15.7176 19.6644C17.2324 19.6644 18.4604 18.4364 18.4604 16.9216C18.4604 15.4068 17.2324 14.1788 15.7176 14.1788C14.2028 14.1788 12.9748 15.4068 12.9748 16.9216C12.9748 18.4364 14.2028 19.6644 15.7176 19.6644Z" fill="#61DAFB"/>
<path fill-rule="evenodd" clip-rule="evenodd" d="M2.82666 15.4765C2.20554 16.0372 2 16.5272 2 16.9216C2 17.3159 2.20554 17.8059 2.82666 18.3666C3.44768 18.9272 4.40246 19.4779 5.66739 19.9609C8.19037 20.9242 11.7434 21.541 15.7176 21.541C19.6918 21.541 23.2449 20.9242 25.7678 19.9609C27.0328 19.4779 27.9875 18.9272 28.6086 18.3666C29.2297 17.8059 29.4352 17.3159 29.4352 16.9216C29.4352 16.5272 29.2297 16.0372 28.6086 15.4765C27.9875 14.9159 27.0328 14.3652 25.7678 13.8822C23.2449 12.9189 19.6918 12.3021 15.7176 12.3021C11.7434 12.3021 8.19037 12.9189 5.66739 13.8822C4.40246 14.3652 3.44768 14.9159 2.82666 15.4765ZM4.95399 12.0138C7.75773 10.9433 11.5635 10.3021 15.7176 10.3021C19.8717 10.3021 23.6775 10.9433 26.4812 12.0138C27.8797 12.5478 29.0802 13.2079 29.9487 13.9919C30.8171 14.7758 31.4352 15.7642 31.4352 16.9216C31.4352 18.079 30.8171 19.0673 29.9487 19.8512C29.0802 20.6352 27.8797 21.2954 26.4812 21.8293C23.6775 22.8999 19.8717 23.541 15.7176 23.541C11.5635 23.541 7.75773 22.8999 4.95399 21.8293C3.55555 21.2954 2.35499 20.6352 1.4865 19.8512C0.618127 19.0673 0 18.079 0 16.9216C0 15.7642 0.618127 14.7758 1.4865 13.9919C2.35499 13.2079 3.55555 12.5478 4.95399 12.0138Z" fill="#61DAFB"/>
<path fill-rule="evenodd" clip-rule="evenodd" d="M10.5236 5.03516C9.72746 4.7776 9.20033 4.8446 8.85882 5.04178C8.5173 5.23895 8.19571 5.66195 8.02069 6.48022C7.8457 7.29834 7.84617 8.40055 8.06037 9.7375C8.4876 12.4041 9.72994 15.7895 11.7171 19.2313C13.7042 22.6731 16.0148 25.4417 18.1106 27.145C19.1613 27.999 20.1156 28.5505 20.9116 28.808C21.7078 29.0656 22.2349 28.9986 22.5764 28.8014C22.9179 28.6042 23.2395 28.1812 23.4146 27.3629C23.5895 26.5448 23.5891 25.4426 23.3749 24.1057C22.9476 21.439 21.7053 18.0536 19.7182 14.6119C17.7311 11.1701 15.4204 8.40147 13.3247 6.69816C12.2739 5.84419 11.3196 5.29268 10.5236 5.03516ZM14.5861 5.14612C16.915 7.03897 19.3732 10.0143 21.4502 13.6119C23.5273 17.2094 24.8749 20.8259 25.3497 23.7893C25.5865 25.2673 25.615 26.6371 25.3703 27.7813C25.1256 28.9253 24.5788 29.9547 23.5764 30.5334C22.5741 31.1121 21.4091 31.071 20.296 30.7109C19.1828 30.3508 18.0108 29.6411 16.8492 28.697C14.5202 26.8042 12.0621 23.8288 9.98501 20.2313C7.90797 16.6338 6.56033 13.0173 6.08556 10.0539C5.84875 8.57584 5.82021 7.20602 6.06493 6.06189C6.30962 4.91791 6.85646 3.88844 7.85882 3.30973C8.86117 2.73101 10.0261 2.77217 11.1392 3.13226C12.2524 3.49239 13.4244 4.20201 14.5861 5.14612Z" fill="#61DAFB"/>
<path fill-rule="evenodd" clip-rule="evenodd" d="M23.4145 6.48021C23.2395 5.66195 22.9179 5.23894 22.5764 5.04177C22.2349 4.8446 21.7078 4.77759 20.9116 5.03515C20.1156 5.29267 19.1613 5.84418 18.1106 6.69816C16.0148 8.40146 13.7042 11.1701 11.717 14.6118C9.72992 18.0536 8.48758 21.439 8.06035 24.1057C7.84615 25.4426 7.84568 26.5448 8.02067 27.3629C8.19569 28.1812 8.51728 28.6042 8.85879 28.8014C9.20031 28.9985 9.72743 29.0656 10.5236 28.808C11.3196 28.5505 12.2739 27.999 13.3246 27.145C15.4204 25.4417 17.731 22.6731 19.7182 19.2313C21.7053 15.7895 22.9476 12.4041 23.3749 9.73749C23.5891 8.40054 23.5895 7.29833 23.4145 6.48021ZM25.3497 10.0539C24.8749 13.0173 23.5273 16.6338 21.4502 20.2313C19.3732 23.8288 16.915 26.8042 14.586 28.697C13.4244 29.6411 12.2524 30.3508 11.1392 30.7109C10.0261 31.071 8.86115 31.1121 7.85879 30.5334C6.85643 29.9547 6.3096 28.9252 6.06491 27.7813C5.82019 26.6371 5.84873 25.2673 6.08553 23.7893C6.56031 20.8259 7.90794 17.2094 9.98499 13.6118C12.062 10.0143 14.5202 7.03897 16.8492 5.14611C18.0108 4.20201 19.1828 3.49238 20.296 3.13225C21.4091 2.77217 22.574 2.73101 23.5764 3.30972C24.5788 3.88843 25.1256 4.9179 25.3703 6.06189C25.615 7.20602 25.5865 8.57583 25.3497 10.0539Z" fill="#61DAFB"/>
</svg>
