<svg width="32" height="32" viewBox="0 0 32 32" fill="none" xmlns="http://www.w3.org/2000/svg">
<path d="M0 0H31.1111V31.1111H0V0Z" fill="#017ACB"/>
<path d="M14.9382 11.5208H16.4306V14.0972H12.3959V25.5597L12.2889 25.5889C12.1431 25.6278 10.2229 25.6278 9.80974 25.584L9.47919 25.5549V14.0972H5.44446V11.5208L6.72293 11.5062C7.42293 11.4965 9.22155 11.4965 10.7188 11.5062C12.216 11.516 14.1118 11.5208 14.9382 11.5208ZM26.3278 24.3444C25.7348 24.9715 25.098 25.3215 24.0382 25.6083C23.5764 25.7347 23.4987 25.7396 22.4584 25.7347C21.4181 25.7299 21.3355 25.7299 20.8299 25.5986C19.5223 25.2632 18.4674 24.6069 17.748 23.6785C17.5438 23.416 17.2084 22.8715 17.2084 22.8035C17.2084 22.784 17.257 22.7403 17.3202 22.7111C17.3834 22.6819 17.5146 22.5993 17.6216 22.5361C17.7285 22.4729 17.923 22.3562 18.0542 22.2882C18.1855 22.2201 18.5646 21.9965 18.8952 21.7972C19.2257 21.5979 19.5271 21.4375 19.5611 21.4375C19.5952 21.4375 19.6584 21.5056 19.707 21.5882C19.9986 22.0792 20.6792 22.7062 21.1605 22.9201C21.457 23.0465 22.1132 23.1875 22.4292 23.1875C22.7209 23.1875 23.2556 23.0611 23.5424 22.9299C23.8487 22.7889 24.0042 22.6479 24.1889 22.366C24.3153 22.1667 24.3299 22.1132 24.325 21.734C24.325 21.384 24.3056 21.2868 24.2084 21.1264C23.9362 20.6792 23.5667 20.4458 22.0695 19.7847C20.5237 19.0993 19.8285 18.691 19.2646 18.1417C18.8466 17.7333 18.7639 17.6215 18.5014 17.1111C18.1611 16.4549 18.1174 16.241 18.1125 15.2639C18.1077 14.5785 18.1223 14.3549 18.1952 14.1215C18.2973 13.7715 18.6278 13.0958 18.7785 12.9257C19.0896 12.5611 19.2014 12.4493 19.4202 12.2694C20.0813 11.725 21.1118 11.3653 22.0987 11.3312C22.2105 11.3312 22.5799 11.3507 22.925 11.375C23.9167 11.4576 24.5924 11.7007 25.2438 12.2208C25.7348 12.6097 26.4785 13.5236 26.4056 13.6451C26.357 13.7181 24.4174 15.0111 24.291 15.05C24.2132 15.0743 24.1598 15.0451 24.0528 14.9187C23.3917 14.1264 23.1243 13.9562 22.4827 13.9174C22.0257 13.8882 21.7827 13.9417 21.4764 14.1458C21.1556 14.3597 21 14.6854 21 15.1375C21.0049 15.7986 21.2577 16.1097 22.191 16.5715C22.7938 16.8681 23.3091 17.1111 23.348 17.1111C23.4063 17.1111 24.6556 17.7333 24.9813 17.9278C26.498 18.8174 27.1153 19.7312 27.2757 21.3062C27.3924 22.4924 27.057 23.5764 26.3278 24.3444Z" fill="white"/>
</svg>
