<svg width="18" height="14" viewBox="0 0 18 14" fill="none" xmlns="http://www.w3.org/2000/svg">
<mask id="mask0_17_5210" style="mask-type:luminance" maskUnits="userSpaceOnUse" x="0" y="0" width="18" height="14">
<path fill-rule="evenodd" clip-rule="evenodd" d="M0.230103 0.618652V13.7508H17.7397V0.618652H0.230103Z" fill="white"/>
</mask>
<g mask="url(#mask0_17_5210)">
<path fill-rule="evenodd" clip-rule="evenodd" d="M8.95985 2.64893L15.6479 7.30981L8.86886 11.6749L2.31784 7.21948L8.95985 2.64893Z" fill="#FFD221"/>
<path fill-rule="evenodd" clip-rule="evenodd" d="M8.95985 2.64893L15.6479 7.30981L8.86886 11.6749L2.31784 7.21948L8.95985 2.64893Z" fill="url(#paint0_linear_17_5210)"/>
<path fill-rule="evenodd" clip-rule="evenodd" d="M8.99997 10.0466C10.5135 10.0466 11.7406 8.81961 11.7406 7.30604C11.7406 5.79243 10.5135 4.56543 8.99997 4.56543C7.4864 4.56543 6.25938 5.79243 6.25938 7.30604C6.25938 8.81961 7.4864 10.0466 8.99997 10.0466Z" fill="#2E42A5"/>
<mask id="mask1_17_5210" style="mask-type:luminance" maskUnits="userSpaceOnUse" x="6" y="4" width="6" height="7">
<path fill-rule="evenodd" clip-rule="evenodd" d="M8.99997 10.0466C10.5135 10.0466 11.7406 8.81961 11.7406 7.30604C11.7406 5.79243 10.5135 4.56543 8.99997 4.56543C7.4864 4.56543 6.25938 5.79243 6.25938 7.30604C6.25938 8.81961 7.4864 10.0466 8.99997 10.0466Z" fill="white"/>
</mask>
<g mask="url(#mask1_17_5210)">
<path fill-rule="evenodd" clip-rule="evenodd" d="M8.11203 8.60442L7.98958 8.66877L8.01298 8.53245L7.91394 8.43593L8.0508 8.41603L8.11203 8.29199L8.17325 8.41603L8.31012 8.43593L8.21107 8.53245L8.23448 8.66877L8.11203 8.60442Z" fill="#F7FCFF"/>
<path fill-rule="evenodd" clip-rule="evenodd" d="M9.20825 8.60442L9.0858 8.66877L9.10921 8.53245L9.01016 8.43593L9.14703 8.41603L9.20825 8.29199L9.26948 8.41603L9.40634 8.43593L9.3073 8.53245L9.3307 8.66877L9.20825 8.60442Z" fill="#F7FCFF"/>
<path fill-rule="evenodd" clip-rule="evenodd" d="M9.20825 9.26262L9.0858 9.32697L9.10921 9.19065L9.01016 9.09408L9.14703 9.07418L9.20825 8.9502L9.26948 9.07418L9.40634 9.09408L9.3073 9.19065L9.3307 9.32697L9.20825 9.26262Z" fill="#F7FCFF"/>
<path fill-rule="evenodd" clip-rule="evenodd" d="M8.66013 6.96038L8.53768 7.02472L8.56108 6.88841L8.46204 6.79188L8.5989 6.77199L8.66013 6.64795L8.72135 6.77199L8.85821 6.79188L8.75917 6.88841L8.78257 7.02472L8.66013 6.96038Z" fill="#F7FCFF"/>
<path fill-rule="evenodd" clip-rule="evenodd" d="M8.66013 8.05657L8.53768 8.12092L8.56108 7.9846L8.46204 7.88808L8.5989 7.86818L8.66013 7.74414L8.72135 7.86818L8.85821 7.88808L8.75917 7.9846L8.78257 8.12092L8.66013 8.05657Z" fill="#F7FCFF"/>
<path fill-rule="evenodd" clip-rule="evenodd" d="M7.89278 7.50823L7.77033 7.57258L7.79373 7.43626L7.69469 7.33974L7.83155 7.31984L7.89278 7.1958L7.954 7.31984L8.09087 7.33974L7.99182 7.43626L8.01517 7.57258L7.89278 7.50823Z" fill="#F7FCFF"/>
<path fill-rule="evenodd" clip-rule="evenodd" d="M7.12541 7.9467L7.00296 8.01111L7.02636 7.87479L6.92726 7.77821L7.06418 7.75832L7.12541 7.63428L7.18658 7.75832L7.32349 7.77821L7.22445 7.87479L7.2478 8.01111L7.12541 7.9467Z" fill="#F7FCFF"/>
<path fill-rule="evenodd" clip-rule="evenodd" d="M9.64674 6.08342L9.52435 6.14782L9.5477 6.01147L9.44865 5.91492L9.58557 5.89503L9.64674 5.771L9.70797 5.89503L9.84489 5.91492L9.74579 6.01147L9.76919 6.14782L9.64674 6.08342Z" fill="#F7FCFF"/>
<path d="M5.67004 6.64633L5.75248 5.55322C8.38229 5.75152 10.458 6.61623 11.9533 8.15436L11.1673 8.91849C9.87125 7.58536 8.04755 6.82562 5.67004 6.64633Z" fill="#F7FCFF"/>
<path d="M6.96614 6.43029L6.99437 6.15771C8.68969 6.33333 10.1438 6.98263 11.3523 8.10435L11.1659 8.30518C10.0013 7.22435 8.60287 6.59983 6.96614 6.43029Z" fill="#009933"/>
</g>
</g>
<defs>
<linearGradient id="paint0_linear_17_5210" x1="17.7698" y1="13.7735" x2="17.7698" y2="0.618679" gradientUnits="userSpaceOnUse">
<stop stop-color="#FFC600"/>
<stop offset="1" stop-color="#FFDE42"/>
</linearGradient>
</defs>
</svg>
