<svg width="30" height="30" viewBox="0 0 30 30" fill="none" xmlns="http://www.w3.org/2000/svg">
<g clip-path="url(#clip0_10_33)">
<path d="M15.241 0.783081C7.25717 0.783081 0.783142 7.25591 0.783142 15.2409C0.783142 21.6287 4.92575 27.0481 10.6703 28.9599C11.3928 29.0937 11.6581 28.6462 11.6581 28.2644C11.6581 27.9196 11.6447 26.7807 11.6385 25.5726C7.61629 26.4472 6.76757 23.8668 6.76757 23.8668C6.10989 22.1957 5.16229 21.7513 5.16229 21.7513C3.85053 20.854 5.26117 20.8724 5.26117 20.8724C6.71298 20.9744 7.47743 22.3623 7.47743 22.3623C8.76692 24.5726 10.8597 23.9336 11.6847 23.5642C11.8144 22.6297 12.1891 21.9919 12.6026 21.6309C9.39132 21.2653 6.01556 20.0256 6.01556 14.4858C6.01556 12.9073 6.58034 11.6176 7.50521 10.6051C7.35509 10.2409 6.86022 8.77045 7.64526 6.779C7.64526 6.779 8.85934 6.39043 11.6222 8.26098C12.7755 7.94064 14.0123 7.77999 15.241 7.77449C16.4696 7.77999 17.7074 7.94064 18.8628 8.26098C21.6223 6.39043 22.8347 6.779 22.8347 6.779C23.6217 8.77045 23.1266 10.2409 22.9765 10.6051C23.9035 11.6176 24.4644 12.9073 24.4644 14.4858C24.4644 20.0388 21.0822 21.2615 17.8628 21.6194C18.3814 22.0681 18.8434 22.9479 18.8434 24.2968C18.8434 26.2313 18.8267 27.7882 18.8267 28.2644C18.8267 28.6491 19.0869 29.0999 19.8198 28.958C25.5612 27.0441 29.6985 21.6266 29.6985 15.2409C29.6985 7.25591 23.2255 0.783081 15.241 0.783081ZM6.19806 21.3785C6.16622 21.4504 6.05322 21.4719 5.95027 21.4226C5.8454 21.3754 5.78651 21.2775 5.8205 21.2054C5.85163 21.1315 5.96487 21.1109 6.0695 21.1604C6.1746 21.2076 6.23445 21.3065 6.19806 21.3785ZM6.90923 22.0131C6.84027 22.077 6.70548 22.0473 6.61403 21.9463C6.51946 21.8455 6.50174 21.7107 6.57165 21.6458C6.64276 21.5819 6.77348 21.6118 6.86829 21.7126C6.96286 21.8146 6.98129 21.9485 6.90923 22.0131ZM7.39711 22.825C7.30853 22.8865 7.16368 22.8288 7.07414 22.7003C6.98556 22.5717 6.98556 22.4175 7.07606 22.3557C7.16584 22.294 7.30853 22.3495 7.39927 22.4771C7.48761 22.6079 7.48761 22.762 7.39711 22.825ZM8.22223 23.7653C8.14298 23.8527 7.9742 23.8292 7.85066 23.71C7.72425 23.5934 7.68905 23.428 7.76854 23.3406C7.84874 23.2529 8.01849 23.2776 8.14298 23.3959C8.26844 23.5122 8.30674 23.6789 8.22223 23.7653ZM9.28862 24.0827C9.25366 24.196 9.0911 24.2474 8.92734 24.1993C8.76382 24.1498 8.6568 24.0171 8.68984 23.9027C8.72383 23.7887 8.88712 23.7351 9.05207 23.7866C9.21535 23.8359 9.32261 23.9676 9.28862 24.0827ZM10.5022 24.2174C10.5063 24.3366 10.3674 24.4355 10.1955 24.4376C10.0227 24.4415 9.88284 24.345 9.88092 24.2277C9.88092 24.1072 10.0167 24.0093 10.1895 24.0065C10.3614 24.0031 10.5022 24.0989 10.5022 24.2174ZM11.6944 24.1717C11.715 24.288 11.5955 24.4075 11.4248 24.4393C11.257 24.47 11.1016 24.3982 11.0803 24.2828C11.0595 24.1635 11.1811 24.0441 11.3487 24.0132C11.5197 23.9835 11.6726 24.0534 11.6944 24.1717Z" fill="#B3B3B3"/>
</g>
<defs>
<clipPath id="clip0_10_33">
<rect width="28.9154" height="28.2377" fill="white" transform="translate(0.783142 0.783081)"/>
</clipPath>
</defs>
</svg>
