<svg width="30" height="30" viewBox="0 0 30 30" fill="none" xmlns="http://www.w3.org/2000/svg">
<g clip-path="url(#clip0_10_36)">
<path d="M14.6812 3.38812C18.5416 3.38812 18.9988 3.40282 20.5233 3.47237C21.9329 3.53671 22.6984 3.77223 23.2079 3.97017C23.8827 4.23244 24.3644 4.54579 24.8703 5.05168C25.3762 5.55758 25.6895 6.03925 25.9517 6.71404C26.1497 7.22355 26.3853 7.98907 26.4496 9.39862C26.5192 10.9232 26.5339 11.3804 26.5339 15.2408C26.5339 19.1012 26.5192 19.5584 26.4496 21.0829C26.3853 22.4925 26.1497 23.2581 25.9517 23.7676C25.6895 24.4424 25.3762 24.924 24.8703 25.4299C24.3644 25.9358 23.8827 26.2492 23.2079 26.5114C22.6984 26.7094 21.9329 26.9449 20.5233 27.0092C18.999 27.0788 18.5418 27.0935 14.6812 27.0935C10.8206 27.0935 10.3633 27.0788 8.83905 27.0092C7.42944 26.9449 6.66392 26.7094 6.15447 26.5114C5.47962 26.2492 4.99795 25.9358 4.49206 25.4299C3.98616 24.924 3.67282 24.4424 3.4106 23.7676C3.21261 23.2581 2.97708 22.4925 2.91274 21.083C2.84319 19.5584 2.8285 19.1012 2.8285 15.2408C2.8285 11.3804 2.84319 10.9232 2.91274 9.39868C2.97708 7.98907 3.21261 7.22355 3.4106 6.71404C3.67282 6.03925 3.98616 5.55758 4.49206 5.05168C4.99795 4.54579 5.47962 4.23244 6.15447 3.97017C6.66392 3.77223 7.42944 3.53671 8.839 3.47237C10.3636 3.40282 10.8208 3.38812 14.6812 3.38812ZM14.6812 0.783081C10.7547 0.783081 10.2624 0.799724 8.72031 0.870084C7.1814 0.940329 6.13048 1.1847 5.21081 1.54212C4.26009 1.9116 3.45382 2.40595 2.65007 3.2097C1.84632 4.01344 1.35197 4.81971 0.982492 5.77044C0.625068 6.69011 0.380702 7.74103 0.310456 9.27994C0.240096 10.822 0.223511 11.3143 0.223511 15.2408C0.223511 19.1673 0.240096 19.6597 0.310456 21.2017C0.380702 22.7406 0.625068 23.7915 0.982492 24.7112C1.35197 25.6618 1.84632 26.4682 2.65007 27.2719C3.45382 28.0757 4.26009 28.57 5.21081 28.9395C6.13048 29.2969 7.1814 29.5413 8.72031 29.6115C10.2624 29.6819 10.7547 29.6985 14.6812 29.6985C18.6077 29.6985 19.1 29.6819 20.642 29.6115C22.1809 29.5413 23.2319 29.2969 24.1515 28.9395C25.1023 28.57 25.9085 28.0757 26.7123 27.2719C27.516 26.4682 28.0104 25.6619 28.3799 24.7112C28.7373 23.7915 28.9816 22.7406 29.0519 21.2017C29.1223 19.6597 29.1389 19.1673 29.1389 15.2408C29.1389 11.3143 29.1223 10.822 29.0519 9.27994C28.9816 7.74103 28.7373 6.69011 28.3799 5.77044C28.0104 4.81971 27.516 4.01344 26.7123 3.2097C25.9085 2.40595 25.1023 1.9116 24.1515 1.54212C23.2319 1.1847 22.1809 0.940329 20.642 0.870084C19.1 0.799724 18.6077 0.783081 14.6812 0.783081ZM14.6812 7.81656C10.5809 7.81656 7.25693 11.1405 7.25693 15.2408C7.25693 19.3411 10.5809 22.665 14.6812 22.665C18.7815 22.665 22.1054 19.3411 22.1054 15.2408C22.1054 11.1405 18.7815 7.81656 14.6812 7.81656ZM14.6812 20.0601C12.0196 20.0601 9.86191 17.9024 9.86191 15.2408C9.86191 12.5792 12.0196 10.4215 14.6812 10.4215C17.3427 10.4215 19.5004 12.5792 19.5004 15.2408C19.5004 17.9024 17.3427 20.0601 14.6812 20.0601ZM24.1336 7.52324C24.1336 8.48142 23.3569 9.25819 22.3987 9.25819C21.4406 9.25819 20.6638 8.48142 20.6638 7.52324C20.6638 6.56506 21.4406 5.78834 22.3987 5.78834C23.3569 5.78834 24.1336 6.56506 24.1336 7.52324Z" fill="#B3B3B3"/>
</g>
<defs>
<clipPath id="clip0_10_36">
<rect width="28.9154" height="28.9154" fill="white" transform="translate(0.223511 0.783081)"/>
</clipPath>
</defs>
</svg>
