<svg width="30" height="30" viewBox="0 0 30 30" fill="none" xmlns="http://www.w3.org/2000/svg">
<g clip-path="url(#clip0_10_40)">
<path d="M24.9966 25.0766H20.775V18.4616C20.775 16.8841 20.743 14.8541 18.5752 14.8541C16.3741 14.8541 16.038 16.5706 16.038 18.3452V25.0766H11.8164V11.4736H15.8717V13.3278H15.9263C16.4929 12.2587 17.8708 11.1303 19.9293 11.1303C24.2067 11.1303 24.9978 13.9454 24.9978 17.6099L24.9966 25.0766ZM7.04844 9.61223C5.68956 9.61223 4.59795 8.5123 4.59795 7.15936C4.59795 5.80761 5.69075 4.70886 7.04844 4.70886C8.40257 4.70886 9.50013 5.80761 9.50013 7.15936C9.50013 8.5123 8.40138 9.61223 7.04844 9.61223ZM9.16516 25.0766H4.93173V11.4736H9.16516V25.0766ZM27.1085 0.783081H2.81263C1.64975 0.783081 0.708984 1.70246 0.708984 2.83684V27.2373C0.708984 28.3728 1.64975 29.291 2.81263 29.291H27.105C28.2667 29.291 29.2169 28.3728 29.2169 27.2373V2.83684C29.2169 1.70246 28.2667 0.783081 27.105 0.783081H27.1085Z" fill="#B3B3B3"/>
</g>
<defs>
<clipPath id="clip0_10_40">
<rect width="28.508" height="28.508" fill="white" transform="translate(0.708984 0.783081)"/>
</clipPath>
</defs>
</svg>
