<svg width="79" height="48" viewBox="0 0 79 48" fill="none" xmlns="http://www.w3.org/2000/svg">
<path d="M39.4871 7.72576H37.235V5.76739H43.8935V7.72576H41.6413V19.476H39.4871V7.72576ZM45.7022 5.76739H48.6202L50.8527 19.476H48.6985L48.3068 16.7538V16.793H45.8589L45.4672 19.476H43.4697L45.7022 5.76739ZM48.0522 14.9326L47.0926 8.1566H47.0535L46.1135 14.9326H48.0522ZM51.8978 5.76739H54.0521V17.5176H57.5967V19.476H51.8978V5.76739ZM58.6297 5.76739H60.784V17.5176H64.3286V19.476H58.6297V5.76739ZM65.3616 5.76739H71.2368V7.72576H67.5159V11.3487H70.473V13.3071H67.5159V17.5176H71.2368V19.476H65.3616V5.76739ZM75.3148 19.6718C74.2703 19.6718 73.4804 19.3781 72.9451 18.7906C72.4098 18.19 72.1422 17.3348 72.1422 16.2251V15.4417H74.1789V16.3818C74.1789 17.2696 74.551 17.7134 75.2952 17.7134C75.6607 17.7134 75.9349 17.609 76.1177 17.4001C76.3135 17.1782 76.4114 16.8257 76.4114 16.3426C76.4114 15.7681 76.2809 15.2655 76.0198 14.8346C75.7587 14.3907 75.2756 13.862 74.5706 13.2484C73.6828 12.465 73.0626 11.76 72.7101 11.1333C72.3576 10.4936 72.1814 9.77552 72.1814 8.97912C72.1814 7.89548 72.4555 7.05991 73.0039 6.4724C73.5522 5.87183 74.3486 5.57155 75.3931 5.57155C76.4245 5.57155 77.2013 5.87183 77.7236 6.4724C78.2588 7.05991 78.5265 7.90854 78.5265 9.01828V9.58621H76.4898V8.8812C76.4898 8.41119 76.3984 8.07174 76.2156 7.86284C76.0328 7.6409 75.7652 7.52992 75.4127 7.52992C74.6946 7.52992 74.3356 7.96729 74.3356 8.84203C74.3356 9.33815 74.4661 9.80163 74.7272 10.2325C75.0014 10.6633 75.491 11.1855 76.196 11.7992C77.0969 12.5825 77.717 13.2941 78.0565 13.9338C78.3959 14.5735 78.5657 15.3242 78.5657 16.1859C78.5657 17.3087 78.285 18.1704 77.7236 18.771C77.1752 19.3715 76.3723 19.6718 75.3148 19.6718Z" fill="white"/>
<path d="M32.4675 26.8449H35.3855L37.6181 40.5535H35.4639L35.0722 37.8313V37.8705H32.6242L32.2325 40.5535H30.235L32.4675 26.8449ZM34.8176 36.01L33.858 29.2341H33.8188L32.8788 36.01H34.8176ZM38.6632 26.8449H41.7378L43.1087 36.6563H43.1479L44.5187 26.8449H47.5934V40.5535H45.5567V30.1741H45.5175L43.9508 40.5535H42.1491L40.5824 30.1741H40.5432V40.5535H38.6632V26.8449ZM50.8655 26.8449H53.7835L56.016 40.5535H53.8618L53.4702 37.8313V37.8705H51.0222L50.6305 40.5535H48.633L50.8655 26.8449ZM53.2156 36.01L52.256 29.2341H52.2168L51.2768 36.01H53.2156ZM57.0612 26.8449H60.2533C61.3631 26.8449 62.1725 27.106 62.6817 27.6282C63.1909 28.1374 63.4455 28.9273 63.4455 29.9978V30.8399C63.4455 32.263 62.9754 33.1639 62.0354 33.5425V33.5817C62.5577 33.7383 62.9232 34.0582 63.1321 34.5413C63.3541 35.0243 63.465 35.6706 63.465 36.4801V38.8889C63.465 39.2805 63.4781 39.6004 63.5042 39.8485C63.5303 40.0835 63.5956 40.3185 63.7 40.5535H61.5067C61.4283 40.3315 61.3761 40.1226 61.35 39.9268C61.3239 39.731 61.3108 39.3784 61.3108 38.8693V36.3626C61.3108 35.7359 61.2064 35.2985 60.9975 35.0504C60.8017 34.8024 60.4557 34.6784 59.9596 34.6784H59.2154V40.5535H57.0612V26.8449ZM59.9987 32.72C60.4296 32.72 60.7494 32.609 60.9583 32.3871C61.1803 32.1651 61.2912 31.793 61.2912 31.2708V30.2133C61.2912 29.7171 61.1999 29.3581 61.0171 29.1362C60.8473 28.9142 60.5732 28.8032 60.1946 28.8032H59.2154V32.72H59.9987ZM66.6243 26.8449H69.5423L71.7748 40.5535H69.6206L69.2289 37.8313V37.8705H66.781L66.3893 40.5535H64.3917L66.6243 26.8449ZM68.9743 36.01L68.0147 29.2341H67.9756L67.0355 36.01H68.9743ZM72.8199 26.8449H74.9741V38.5951H78.5188V40.5535H72.8199V26.8449Z" fill="white"/>
<path d="M12.0432 32.5744L3.05896 24.006C2.44368 23.4192 2.45736 22.433 3.08869 21.8635L12.0432 13.7859" stroke="white" stroke-width="2.9225" stroke-linecap="round"/>
<path d="M30.3473 1.73059L15.7305 44.6064" stroke="white" stroke-width="2.93756" stroke-linecap="round"/>
</svg>
