<svg width="37" height="30" viewBox="0 0 37 30" fill="none" xmlns="http://www.w3.org/2000/svg">
<path d="M36.1839 4.24734C34.8489 4.82648 33.4371 5.20933 31.9925 5.38398C33.5166 4.47346 34.6588 3.04105 35.2071 1.35247C33.7748 2.20506 32.207 2.80576 30.5717 3.12846C29.4787 1.94311 28.0231 1.15408 26.4333 0.885115C24.8435 0.61615 23.2094 0.882463 21.7873 1.64229C20.3651 2.40212 19.2354 3.61248 18.5753 5.08354C17.9152 6.55461 17.762 8.20317 18.1397 9.77068C15.2438 9.62421 12.4112 8.87017 9.82569 7.55755C7.24022 6.24493 4.9598 4.40308 3.13257 2.15166C2.49168 3.27084 2.15492 4.53829 2.15578 5.82797C2.1535 7.02567 2.44743 8.20535 3.01137 9.26198C3.57532 10.3186 4.39179 11.2194 5.38809 11.8841C4.2301 11.8526 3.09685 11.5419 2.08474 10.9784V11.0672C2.09342 12.7453 2.68146 14.3689 3.7494 15.6634C4.81735 16.9579 6.29963 17.8437 7.94552 18.1711C7.31195 18.364 6.65415 18.4656 5.99193 18.4731C5.53353 18.4677 5.07626 18.4261 4.62441 18.3487C5.09311 19.7923 6.00014 21.0538 7.21927 21.9579C8.43841 22.8619 9.90902 23.3634 11.4265 23.3926C8.86407 25.4088 5.70046 26.5092 2.43994 26.5183C1.84628 26.5203 1.2531 26.4847 0.66394 26.4118C3.99292 28.5612 7.87238 29.7022 11.835 29.6974C14.5694 29.7258 17.2822 29.209 19.8147 28.1772C22.3472 27.1455 24.6488 25.6195 26.585 23.6883C28.5211 21.7571 30.0531 19.4594 31.0913 16.9296C32.1295 14.3997 32.6532 11.6883 32.6319 8.95373C32.6319 8.65181 32.6319 8.33213 32.6319 8.01245C34.0255 6.97316 35.2274 5.69908 36.1839 4.24734Z" fill="#B3B3B3"/>
</svg>
