<svg width="80" height="80" viewBox="0 0 80 80" fill="none" xmlns="http://www.w3.org/2000/svg">
<rect width="80" height="80" rx="8" fill="url(#paint0_radial_74_14)"/>
<g clip-path="url(#clip0_74_14)">
<path d="M40.9596 46.8701C34.2239 52.6244 29.4407 53.0302 26.9912 50.5786C24.7342 48.3216 26.606 42.6605 31.1676 37.0698L22.5 28.4043H28.0389L36.6486 37.0139C31.2152 42.4804 28.0472 48.3009 29.6851 49.9388C31.0413 51.2971 35.2157 49.4149 39.7193 45.6298L40.9596 46.8701Z" fill="#F7F7FA"/>
<path d="M56.7605 51.5951H51.2216L42.6119 42.9855C48.0452 37.5211 51.2133 31.6985 49.5775 30.0627C48.2212 28.7044 44.0427 30.5887 39.5391 34.3738L38.2988 33.1335C45.0366 27.3771 49.8218 26.9692 52.2714 29.4208C54.5284 31.6778 52.6586 37.3389 48.0949 42.9296L56.7626 51.5951H56.7605Z" fill="#F7F7FA"/>
</g>
<defs>
<radialGradient id="paint0_radial_74_14" cx="0" cy="0" r="1" gradientUnits="userSpaceOnUse" gradientTransform="translate(40 40) rotate(90) scale(40)">
<stop stop-color="#3D254D"/>
<stop offset="1" stop-color="#511B74"/>
</radialGradient>
<clipPath id="clip0_74_14">
<rect width="35" height="24" fill="white" transform="translate(22.5 28)"/>
</clipPath>
</defs>
</svg>
