<svg width="80" height="80" viewBox="0 0 80 80" fill="none" xmlns="http://www.w3.org/2000/svg">
<rect width="80" height="80" rx="8" fill="url(#paint0_radial_74_6)"/>
<g clip-path="url(#clip0_74_6)">
<path d="M55 28.4L40 19.8L25 28.4V19.8L40 11.2L55 19.8V28.4Z" fill="#A435F0"/>
<path d="M25 35.6H32.9V54.5C32.9 59.4 36.6 61.8 40 61.8C43.5 61.8 47.1 59.4 47.1 54.5V35.6H55V55C55 59.5 53.6 63 50.7 65.4C47.8 67.8 44.3 68.9 39.9 68.9C35.5 68.9 32 67.7 29.2 65.4C26.4 62.9 25 59.6 25 55.1V35.6Z" fill="black"/>
</g>
<defs>
<radialGradient id="paint0_radial_74_6" cx="0" cy="0" r="1" gradientUnits="userSpaceOnUse" gradientTransform="translate(40 40) rotate(90) scale(40)">
<stop stop-color="#FFFEFF"/>
<stop offset="1" stop-color="#FCF8FF"/>
</radialGradient>
<clipPath id="clip0_74_6">
<rect width="30" height="57.6" fill="white" transform="translate(25 11.2)"/>
</clipPath>
</defs>
</svg>
