<svg width="30" height="58" viewBox="0 0 30 58" fill="none" xmlns="http://www.w3.org/2000/svg">
<g clip-path="url(#clip0_71_2)">
<path d="M30 17.2L15 8.6L0 17.2V8.6L15 0L30 8.6V17.2Z" fill="#A435F0"/>
<path d="M0 24.4H7.9V43.3C7.9 48.2 11.6 50.6 15 50.6C18.5 50.6 22.1 48.2 22.1 43.3V24.4H30V43.8C30 48.3 28.6 51.8 25.7 54.2C22.8 56.6 19.3 57.7 14.9 57.7C10.5 57.7 7 56.5 4.2 54.2C1.4 51.7 0 48.4 0 43.9V24.4Z" fill="white"/>
</g>
<defs>
<clipPath id="clip0_71_2">
<rect width="30" height="57.6" fill="white"/>
</clipPath>
</defs>
</svg>
